<mxfile host="app.diagrams.net" modified="2024-05-11T07:42:42.836Z" agent="Mozilla/5.0 (Macintosh; Intel Mac OS X 10_15_7) AppleWebKit/537.36 (KHTML, like Gecko) Chrome/124.0.0.0 Safari/537.36" etag="C1Ib1-OMO-FCp2MTovpY" version="24.3.1" type="google">
  <diagram name="Page-1" id="VsG9z8f7XDpyDDwXSL0n">
    <mxGraphModel dx="1194" dy="756" grid="1" gridSize="10" guides="1" tooltips="1" connect="1" arrows="1" fold="1" page="1" pageScale="1" pageWidth="1169" pageHeight="827" math="0" shadow="0">
      <root>
        <mxCell id="0" />
        <mxCell id="1" parent="0" />
        <mxCell id="m9_Vb37WHCfdFKnfN1fX-1" value="" style="shape=umlLifeline;perimeter=lifelinePerimeter;whiteSpace=wrap;html=1;container=1;dropTarget=0;collapsible=0;recursiveResize=0;outlineConnect=0;portConstraint=eastwest;newEdgeStyle={&quot;curved&quot;:0,&quot;rounded&quot;:0};participant=umlActor;" parent="1" vertex="1">
          <mxGeometry x="30" y="80" width="20" height="480" as="geometry" />
        </mxCell>
        <mxCell id="m9_Vb37WHCfdFKnfN1fX-2" value="Cognito" style="shape=umlLifeline;perimeter=lifelinePerimeter;whiteSpace=wrap;html=1;container=1;dropTarget=0;collapsible=0;recursiveResize=0;outlineConnect=0;portConstraint=eastwest;newEdgeStyle={&quot;curved&quot;:0,&quot;rounded&quot;:0};" parent="1" vertex="1">
          <mxGeometry x="200" y="80" width="100" height="480" as="geometry" />
        </mxCell>
        <mxCell id="m9_Vb37WHCfdFKnfN1fX-6" value="" style="html=1;points=[[0,0,0,0,5],[0,1,0,0,-5],[1,0,0,0,5],[1,1,0,0,-5]];perimeter=orthogonalPerimeter;outlineConnect=0;targetShapes=umlLifeline;portConstraint=eastwest;newEdgeStyle={&quot;curved&quot;:0,&quot;rounded&quot;:0};" parent="m9_Vb37WHCfdFKnfN1fX-2" vertex="1">
          <mxGeometry x="45" y="60" width="10" height="130" as="geometry" />
        </mxCell>
        <mxCell id="m9_Vb37WHCfdFKnfN1fX-3" value="API Gateway" style="shape=umlLifeline;perimeter=lifelinePerimeter;whiteSpace=wrap;html=1;container=1;dropTarget=0;collapsible=0;recursiveResize=0;outlineConnect=0;portConstraint=eastwest;newEdgeStyle={&quot;curved&quot;:0,&quot;rounded&quot;:0};" parent="1" vertex="1">
          <mxGeometry x="440" y="80" width="100" height="480" as="geometry" />
        </mxCell>
        <mxCell id="m9_Vb37WHCfdFKnfN1fX-21" value="" style="html=1;points=[[0,0,0,0,5],[0,1,0,0,-5],[1,0,0,0,5],[1,1,0,0,-5]];perimeter=orthogonalPerimeter;outlineConnect=0;targetShapes=umlLifeline;portConstraint=eastwest;newEdgeStyle={&quot;curved&quot;:0,&quot;rounded&quot;:0};" parent="m9_Vb37WHCfdFKnfN1fX-3" vertex="1">
          <mxGeometry x="45" y="190" width="10" height="80" as="geometry" />
        </mxCell>
        <mxCell id="m9_Vb37WHCfdFKnfN1fX-33" value="" style="html=1;points=[[0,0,0,0,5],[0,1,0,0,-5],[1,0,0,0,5],[1,1,0,0,-5]];perimeter=orthogonalPerimeter;outlineConnect=0;targetShapes=umlLifeline;portConstraint=eastwest;newEdgeStyle={&quot;curved&quot;:0,&quot;rounded&quot;:0};" parent="m9_Vb37WHCfdFKnfN1fX-3" vertex="1">
          <mxGeometry x="45" y="359" width="10" height="80" as="geometry" />
        </mxCell>
        <mxCell id="m9_Vb37WHCfdFKnfN1fX-4" value="Lambda" style="shape=umlLifeline;perimeter=lifelinePerimeter;whiteSpace=wrap;html=1;container=1;dropTarget=0;collapsible=0;recursiveResize=0;outlineConnect=0;portConstraint=eastwest;newEdgeStyle={&quot;curved&quot;:0,&quot;rounded&quot;:0};" parent="1" vertex="1">
          <mxGeometry x="680" y="80" width="100" height="480" as="geometry" />
        </mxCell>
        <mxCell id="m9_Vb37WHCfdFKnfN1fX-22" value="" style="html=1;points=[[0,0,0,0,5],[0,1,0,0,-5],[1,0,0,0,5],[1,1,0,0,-5]];perimeter=orthogonalPerimeter;outlineConnect=0;targetShapes=umlLifeline;portConstraint=eastwest;newEdgeStyle={&quot;curved&quot;:0,&quot;rounded&quot;:0};" parent="m9_Vb37WHCfdFKnfN1fX-4" vertex="1">
          <mxGeometry x="45" y="220" width="10" height="80" as="geometry" />
        </mxCell>
        <mxCell id="m9_Vb37WHCfdFKnfN1fX-31" value="" style="html=1;points=[[0,0,0,0,5],[0,1,0,0,-5],[1,0,0,0,5],[1,1,0,0,-5]];perimeter=orthogonalPerimeter;outlineConnect=0;targetShapes=umlLifeline;portConstraint=eastwest;newEdgeStyle={&quot;curved&quot;:0,&quot;rounded&quot;:0};" parent="m9_Vb37WHCfdFKnfN1fX-4" vertex="1">
          <mxGeometry x="45" y="330" width="10" height="80" as="geometry" />
        </mxCell>
        <mxCell id="m9_Vb37WHCfdFKnfN1fX-5" value="DynamoDB" style="shape=umlLifeline;perimeter=lifelinePerimeter;whiteSpace=wrap;html=1;container=1;dropTarget=0;collapsible=0;recursiveResize=0;outlineConnect=0;portConstraint=eastwest;newEdgeStyle={&quot;curved&quot;:0,&quot;rounded&quot;:0};" parent="1" vertex="1">
          <mxGeometry x="920" y="80" width="100" height="480" as="geometry" />
        </mxCell>
        <mxCell id="m9_Vb37WHCfdFKnfN1fX-25" value="" style="html=1;points=[[0,0,0,0,5],[0,1,0,0,-5],[1,0,0,0,5],[1,1,0,0,-5]];perimeter=orthogonalPerimeter;outlineConnect=0;targetShapes=umlLifeline;portConstraint=eastwest;newEdgeStyle={&quot;curved&quot;:0,&quot;rounded&quot;:0};" parent="m9_Vb37WHCfdFKnfN1fX-5" vertex="1">
          <mxGeometry x="45" y="260" width="10" height="140" as="geometry" />
        </mxCell>
        <mxCell id="m9_Vb37WHCfdFKnfN1fX-13" value="" style="endArrow=block;endFill=1;html=1;edgeStyle=orthogonalEdgeStyle;align=left;verticalAlign=top;rounded=0;" parent="1" target="m9_Vb37WHCfdFKnfN1fX-6" edge="1">
          <mxGeometry x="-1" relative="1" as="geometry">
            <mxPoint x="40" y="160" as="sourcePoint" />
            <mxPoint x="200" y="160" as="targetPoint" />
            <Array as="points">
              <mxPoint x="40" y="180" />
            </Array>
          </mxGeometry>
        </mxCell>
        <mxCell id="m9_Vb37WHCfdFKnfN1fX-16" value="[ username, password ]" style="edgeLabel;html=1;align=center;verticalAlign=middle;resizable=0;points=[];" parent="m9_Vb37WHCfdFKnfN1fX-13" vertex="1" connectable="0">
          <mxGeometry x="-0.0044" y="1" relative="1" as="geometry">
            <mxPoint x="8" y="-9" as="offset" />
          </mxGeometry>
        </mxCell>
        <mxCell id="m9_Vb37WHCfdFKnfN1fX-17" value="" style="endArrow=open;endFill=1;endSize=12;html=1;rounded=0;dashed=1;" parent="1" target="m9_Vb37WHCfdFKnfN1fX-1" edge="1">
          <mxGeometry width="160" relative="1" as="geometry">
            <mxPoint x="240" y="230" as="sourcePoint" />
            <mxPoint x="410" y="290" as="targetPoint" />
          </mxGeometry>
        </mxCell>
        <mxCell id="m9_Vb37WHCfdFKnfN1fX-18" value="( authentication token )" style="edgeLabel;html=1;align=center;verticalAlign=middle;resizable=0;points=[];" parent="m9_Vb37WHCfdFKnfN1fX-17" vertex="1" connectable="0">
          <mxGeometry x="-0.202" y="-4" relative="1" as="geometry">
            <mxPoint x="-13" y="-6" as="offset" />
          </mxGeometry>
        </mxCell>
        <mxCell id="m9_Vb37WHCfdFKnfN1fX-19" value="" style="endArrow=block;endFill=1;html=1;edgeStyle=orthogonalEdgeStyle;align=left;verticalAlign=top;rounded=0;" parent="1" edge="1">
          <mxGeometry x="-1" relative="1" as="geometry">
            <mxPoint x="40" y="301" as="sourcePoint" />
            <mxPoint x="485" y="301" as="targetPoint" />
            <Array as="points">
              <mxPoint x="40" y="301" />
            </Array>
          </mxGeometry>
        </mxCell>
        <mxCell id="m9_Vb37WHCfdFKnfN1fX-20" value="[ authentication toke, uri, parameters ]" style="edgeLabel;html=1;align=center;verticalAlign=middle;resizable=0;points=[];" parent="m9_Vb37WHCfdFKnfN1fX-19" vertex="1" connectable="0">
          <mxGeometry x="-0.0044" y="1" relative="1" as="geometry">
            <mxPoint x="8" y="-9" as="offset" />
          </mxGeometry>
        </mxCell>
        <mxCell id="m9_Vb37WHCfdFKnfN1fX-23" value="" style="endArrow=block;endFill=1;html=1;edgeStyle=orthogonalEdgeStyle;align=left;verticalAlign=top;rounded=0;" parent="1" edge="1">
          <mxGeometry x="-1" relative="1" as="geometry">
            <mxPoint x="494" y="332" as="sourcePoint" />
            <mxPoint x="726" y="332" as="targetPoint" />
            <Array as="points" />
          </mxGeometry>
        </mxCell>
        <mxCell id="m9_Vb37WHCfdFKnfN1fX-24" value="[ authentication toke, parameters ]" style="edgeLabel;html=1;align=center;verticalAlign=middle;resizable=0;points=[];" parent="m9_Vb37WHCfdFKnfN1fX-23" vertex="1" connectable="0">
          <mxGeometry x="-0.0044" y="1" relative="1" as="geometry">
            <mxPoint x="8" y="-9" as="offset" />
          </mxGeometry>
        </mxCell>
        <mxCell id="m9_Vb37WHCfdFKnfN1fX-26" value="" style="endArrow=block;endFill=1;html=1;edgeStyle=orthogonalEdgeStyle;align=left;verticalAlign=top;rounded=0;" parent="1" edge="1">
          <mxGeometry x="-1" relative="1" as="geometry">
            <mxPoint x="734" y="360" as="sourcePoint" />
            <mxPoint x="966" y="360" as="targetPoint" />
            <Array as="points" />
          </mxGeometry>
        </mxCell>
        <mxCell id="m9_Vb37WHCfdFKnfN1fX-27" value="[ authentication toke, parameters ]" style="edgeLabel;html=1;align=center;verticalAlign=middle;resizable=0;points=[];" parent="m9_Vb37WHCfdFKnfN1fX-26" vertex="1" connectable="0">
          <mxGeometry x="-0.0044" y="1" relative="1" as="geometry">
            <mxPoint x="5" y="-9" as="offset" />
          </mxGeometry>
        </mxCell>
        <mxCell id="m9_Vb37WHCfdFKnfN1fX-32" value="( response, data? )" style="html=1;verticalAlign=bottom;endArrow=open;dashed=1;endSize=8;curved=0;rounded=0;" parent="1" edge="1">
          <mxGeometry relative="1" as="geometry">
            <mxPoint x="963.5" y="434" as="sourcePoint" />
            <mxPoint x="734" y="434" as="targetPoint" />
          </mxGeometry>
        </mxCell>
        <mxCell id="m9_Vb37WHCfdFKnfN1fX-34" value="( response, data? )" style="html=1;verticalAlign=bottom;endArrow=open;dashed=1;endSize=8;curved=0;rounded=0;" parent="1" edge="1">
          <mxGeometry relative="1" as="geometry">
            <mxPoint x="725.5" y="461" as="sourcePoint" />
            <mxPoint x="496" y="461" as="targetPoint" />
          </mxGeometry>
        </mxCell>
        <mxCell id="m9_Vb37WHCfdFKnfN1fX-35" value="( http response, data? )" style="html=1;verticalAlign=bottom;endArrow=open;dashed=1;endSize=8;curved=0;rounded=0;" parent="1" edge="1">
          <mxGeometry relative="1" as="geometry">
            <mxPoint x="480" y="500" as="sourcePoint" />
            <mxPoint x="38" y="500" as="targetPoint" />
          </mxGeometry>
        </mxCell>
        <mxCell id="gFrGh0aIk4K4loOOLDm5-25" value="" style="shape=umlLifeline;perimeter=lifelinePerimeter;whiteSpace=wrap;html=1;container=1;dropTarget=0;collapsible=0;recursiveResize=0;outlineConnect=0;portConstraint=eastwest;newEdgeStyle={&quot;curved&quot;:0,&quot;rounded&quot;:0};participant=umlActor;" vertex="1" parent="1">
          <mxGeometry x="30" y="620" width="20" height="340" as="geometry" />
        </mxCell>
        <mxCell id="gFrGh0aIk4K4loOOLDm5-26" value="Cognito" style="shape=umlLifeline;perimeter=lifelinePerimeter;whiteSpace=wrap;html=1;container=1;dropTarget=0;collapsible=0;recursiveResize=0;outlineConnect=0;portConstraint=eastwest;newEdgeStyle={&quot;curved&quot;:0,&quot;rounded&quot;:0};" vertex="1" parent="1">
          <mxGeometry x="200" y="620" width="100" height="340" as="geometry" />
        </mxCell>
        <mxCell id="gFrGh0aIk4K4loOOLDm5-27" value="" style="html=1;points=[[0,0,0,0,5],[0,1,0,0,-5],[1,0,0,0,5],[1,1,0,0,-5]];perimeter=orthogonalPerimeter;outlineConnect=0;targetShapes=umlLifeline;portConstraint=eastwest;newEdgeStyle={&quot;curved&quot;:0,&quot;rounded&quot;:0};" vertex="1" parent="gFrGh0aIk4K4loOOLDm5-26">
          <mxGeometry x="45" y="60" width="10" height="130" as="geometry" />
        </mxCell>
        <mxCell id="gFrGh0aIk4K4loOOLDm5-28" value="S3" style="shape=umlLifeline;perimeter=lifelinePerimeter;whiteSpace=wrap;html=1;container=1;dropTarget=0;collapsible=0;recursiveResize=0;outlineConnect=0;portConstraint=eastwest;newEdgeStyle={&quot;curved&quot;:0,&quot;rounded&quot;:0};" vertex="1" parent="1">
          <mxGeometry x="440" y="620" width="100" height="340" as="geometry" />
        </mxCell>
        <mxCell id="gFrGh0aIk4K4loOOLDm5-29" value="" style="html=1;points=[[0,0,0,0,5],[0,1,0,0,-5],[1,0,0,0,5],[1,1,0,0,-5]];perimeter=orthogonalPerimeter;outlineConnect=0;targetShapes=umlLifeline;portConstraint=eastwest;newEdgeStyle={&quot;curved&quot;:0,&quot;rounded&quot;:0};" vertex="1" parent="gFrGh0aIk4K4loOOLDm5-28">
          <mxGeometry x="45" y="190" width="10" height="130" as="geometry" />
        </mxCell>
        <mxCell id="gFrGh0aIk4K4loOOLDm5-36" value="" style="endArrow=block;endFill=1;html=1;edgeStyle=orthogonalEdgeStyle;align=left;verticalAlign=top;rounded=0;" edge="1" parent="1" target="gFrGh0aIk4K4loOOLDm5-27">
          <mxGeometry x="-1" relative="1" as="geometry">
            <mxPoint x="40" y="700" as="sourcePoint" />
            <mxPoint x="200" y="700" as="targetPoint" />
            <Array as="points">
              <mxPoint x="40" y="720" />
            </Array>
          </mxGeometry>
        </mxCell>
        <mxCell id="gFrGh0aIk4K4loOOLDm5-37" value="[username, password]" style="edgeLabel;html=1;align=center;verticalAlign=middle;resizable=0;points=[];" vertex="1" connectable="0" parent="gFrGh0aIk4K4loOOLDm5-36">
          <mxGeometry x="-0.0044" y="1" relative="1" as="geometry">
            <mxPoint x="8" y="-9" as="offset" />
          </mxGeometry>
        </mxCell>
        <mxCell id="gFrGh0aIk4K4loOOLDm5-38" value="" style="endArrow=open;endFill=1;endSize=12;html=1;rounded=0;dashed=1;" edge="1" parent="1" target="gFrGh0aIk4K4loOOLDm5-25">
          <mxGeometry width="160" relative="1" as="geometry">
            <mxPoint x="240" y="770" as="sourcePoint" />
            <mxPoint x="410" y="830" as="targetPoint" />
          </mxGeometry>
        </mxCell>
        <mxCell id="gFrGh0aIk4K4loOOLDm5-39" value="( authentication token )" style="edgeLabel;html=1;align=center;verticalAlign=middle;resizable=0;points=[];" vertex="1" connectable="0" parent="gFrGh0aIk4K4loOOLDm5-38">
          <mxGeometry x="-0.202" y="-4" relative="1" as="geometry">
            <mxPoint x="-13" y="-6" as="offset" />
          </mxGeometry>
        </mxCell>
        <mxCell id="gFrGh0aIk4K4loOOLDm5-40" value="" style="endArrow=block;endFill=1;html=1;edgeStyle=orthogonalEdgeStyle;align=left;verticalAlign=top;rounded=0;" edge="1" parent="1">
          <mxGeometry x="-1" relative="1" as="geometry">
            <mxPoint x="40" y="841" as="sourcePoint" />
            <mxPoint x="485" y="841" as="targetPoint" />
            <Array as="points">
              <mxPoint x="40" y="841" />
            </Array>
          </mxGeometry>
        </mxCell>
        <mxCell id="gFrGh0aIk4K4loOOLDm5-41" value="[ authentication toke, uri, object ]" style="edgeLabel;html=1;align=center;verticalAlign=middle;resizable=0;points=[];" vertex="1" connectable="0" parent="gFrGh0aIk4K4loOOLDm5-40">
          <mxGeometry x="-0.0044" y="1" relative="1" as="geometry">
            <mxPoint x="8" y="-9" as="offset" />
          </mxGeometry>
        </mxCell>
        <mxCell id="gFrGh0aIk4K4loOOLDm5-48" value="( http response, object? )" style="html=1;verticalAlign=bottom;endArrow=open;dashed=1;endSize=8;curved=0;rounded=0;" edge="1" parent="1">
          <mxGeometry relative="1" as="geometry">
            <mxPoint x="487.5" y="910" as="sourcePoint" />
            <mxPoint x="38" y="910" as="targetPoint" />
          </mxGeometry>
        </mxCell>
      </root>
    </mxGraphModel>
  </diagram>
</mxfile>
